<svg xmlns="http://www.w3.org/2000/svg" width="195.66" height="64" viewBox="0 0 195.66 64">
  <g id="app_store" data-name="app store" transform="translate(-96.64 -935.83)">
    <path id="Path_12863" data-name="Path 12863" d="M292.3,991.182a8.646,8.646,0,0,1-8.648,8.648H105.288a8.649,8.649,0,0,1-8.648-8.648v-46.7a8.651,8.651,0,0,1,8.648-8.648H283.652a8.651,8.651,0,0,1,8.648,8.648Z" transform="translate(0 0)"/>
    <g id="Group_7805" data-name="Group 7805" transform="translate(109.766 945.78)">
      <path id="Path_12864" data-name="Path 12864" d="M169.538,1011.92a31.517,31.517,0,0,1-2.865,5.348c-1.86,2.832-4.485,6.361-7.733,6.391-2.888.026-3.63-1.879-7.549-1.856s-4.737,1.89-7.625,1.864c-3.248-.03-5.734-3.214-7.594-6.049-5.206-7.921-5.746-17.218-2.539-22.157,2.28-3.514,5.877-5.569,9.26-5.569s5.611,1.89,8.457,1.89,4.448-1.89,8.427-1.89a11.236,11.236,0,0,1,8.472,4.474c-7.444,4.08-6.237,14.716,1.286,17.559Z" transform="translate(-131.64 -979.565)" fill="#fff"/>
      <path id="Path_12865" data-name="Path 12865" d="M187.106,969.519a9.649,9.649,0,0,0,2.145-7.159,10.439,10.439,0,0,0-6.743,3.627,8.96,8.96,0,0,0-2.2,6.983,8.824,8.824,0,0,0,6.8-3.45Z" transform="translate(-161.99 -962.36)" fill="#fff"/>
    </g>
    <g id="Group_7808" data-name="Group 7808" transform="translate(156.057 945.873)">
      <g id="Group_7806" data-name="Group 7806" transform="translate(0.004 15.332)">
        <path id="Path_12866" data-name="Path 12866" d="M262.536,1004.42l-7.456,21.94h3.413l2.224-6.736h7.216l2.288,6.736h3.507l-7.486-21.94h-3.713Zm1.77,3.608c.251.979.525,2,.874,3.094l2.01,5.817h-5.716l1.98-5.854c.3-.949.589-1.976.855-3.057Z" transform="translate(-255.08 -1004.071)" fill="#fff"/>
        <path id="Path_12867" data-name="Path 12867" d="M316.466,1019.577a6.21,6.21,0,0,0-5.277,2.531l-.131-2.183H308.02l.019.278c.09,1.358.128,2.858.128,5v16.911h3.319v-7.891a5.826,5.826,0,0,0,4.538,1.95,6.974,6.974,0,0,0,5.029-2.138,9.07,9.07,0,0,0,2.22-6.387,8.846,8.846,0,0,0-1.928-5.832,6.312,6.312,0,0,0-4.879-2.25Zm-.829,2.749c2.959,0,4.283,2.742,4.283,5.457,0,3.5-1.691,5.682-4.41,5.682a4.028,4.028,0,0,1-3.912-3.079,4.158,4.158,0,0,1-.116-1.076v-2.67a4.835,4.835,0,0,1,.105-.818c.015-.09.034-.18.049-.27a4.206,4.206,0,0,1,4-3.225Z" transform="translate(-288.166 -1013.539)" fill="#fff"/>
        <path id="Path_12868" data-name="Path 12868" d="M362.052,1019.577a6.21,6.21,0,0,0-5.277,2.531l-.131-2.183H353.61l.015.278c.09,1.361.128,2.858.128,5v16.911h3.319v-7.891a5.826,5.826,0,0,0,4.538,1.95,6.989,6.989,0,0,0,5.033-2.138,9.087,9.087,0,0,0,2.22-6.387,8.828,8.828,0,0,0-1.931-5.832,6.307,6.307,0,0,0-4.879-2.25Zm-.825,2.749c2.959,0,4.283,2.742,4.283,5.457,0,3.5-1.691,5.682-4.41,5.682a4.025,4.025,0,0,1-3.912-3.079,4.156,4.156,0,0,1-.116-1.076v-2.67a4.876,4.876,0,0,1,.105-.821c.015-.09.034-.18.049-.266a4.206,4.206,0,0,1,4-3.225Z" transform="translate(-316.658 -1013.539)" fill="#fff"/>
        <path id="Path_12869" data-name="Path 12869" d="M420.052,1013.136c-3.1-1.2-4.092-2.141-4.092-3.885,0-1.466,1.166-2.948,3.773-2.948a7.529,7.529,0,0,1,3.9.979l.281.173.938-2.772-.184-.109a9.617,9.617,0,0,0-4.834-1.084c-4.234,0-7.189,2.5-7.189,6.076,0,2.884,1.853,4.9,5.828,6.346,2.816,1.054,3.867,2.13,3.867,3.979,0,2.093-1.616,3.39-4.219,3.39a9.088,9.088,0,0,1-4.785-1.358l-.289-.184-.893,2.835.165.109a11.371,11.371,0,0,0,5.611,1.444c5.7,0,7.729-3.48,7.729-6.458s-1.62-4.965-5.6-6.537Z" transform="translate(-353.243 -1003.49)" fill="#fff"/>
        <path id="Path_12870" data-name="Path 12870" d="M454.681,1010.44l-3.255,1.024v2.756H449.04v2.652h2.385V1025a6.217,6.217,0,0,0,1.148,4.212,4.253,4.253,0,0,0,3.21,1.26,7.753,7.753,0,0,0,2.565-.4l.188-.068-.158-2.659-.319.1a5.045,5.045,0,0,1-1.545.18c-1.286,0-1.834-.814-1.834-2.723v-8.03h4.005v-2.651h-4.005v-3.78Z" transform="translate(-376.298 -1007.833)" fill="#fff"/>
        <path id="Path_12871" data-name="Path 12871" d="M483.557,1019.59c-4.643,0-7.887,3.465-7.887,8.427s3.139,8.176,7.636,8.176h.03c3.8,0,7.887-2.648,7.887-8.461a8.4,8.4,0,0,0-2.115-5.873A7.382,7.382,0,0,0,483.557,1019.59Zm-.1,2.622c2.985,0,4.347,2.91,4.347,5.618,0,3.327-1.856,5.742-4.41,5.742h-.034c-2.516,0-4.347-2.374-4.347-5.648,0-2.843,1.373-5.712,4.44-5.712Z" transform="translate(-392.941 -1013.552)" fill="#fff"/>
        <path id="Path_12872" data-name="Path 12872" d="M530.472,1019.744l-.2-.049a3.277,3.277,0,0,0-.825-.1,4.737,4.737,0,0,0-4.163,2.674l-.1-2.321H522.21l.019.278c.09,1.313.124,2.79.124,4.782l-.03,10.846h3.319v-8.461a8.542,8.542,0,0,1,.09-1.286c.375-2.033,1.744-3.345,3.492-3.345a7.819,7.819,0,0,1,.889.056l.356.038v-3.1Z" transform="translate(-422.026 -1013.552)" fill="#fff"/>
        <path id="Path_12873" data-name="Path 12873" d="M551.634,1019.5c-4.418,0-7.5,3.529-7.5,8.588s3.072,8.015,7.823,8.015a12.7,12.7,0,0,0,5.254-1.009l.2-.09-.638-2.475-.277.113a10.3,10.3,0,0,1-4.159.742,4.616,4.616,0,0,1-4.973-4.812l10.715.034.045-.214a7.351,7.351,0,0,0,.1-1.384c0-3.462-1.725-7.508-6.586-7.508Zm-.221,2.524a3.269,3.269,0,0,1,2.438.93,4.726,4.726,0,0,1,1.144,3.09h-7.572C547.73,1024.128,548.931,1022.024,551.413,1022.024Z" transform="translate(-435.726 -1013.496)" fill="#fff"/>
      </g>
      <g id="Group_7807" data-name="Group 7807" transform="translate(0 0)">
        <path id="Path_12874" data-name="Path 12874" d="M255.074,964.1a24.1,24.1,0,0,1,3.184-.214,7.1,7.1,0,0,1,4.673,1.279,4.546,4.546,0,0,1,1.643,3.743,5.277,5.277,0,0,1-1.661,4.035,7.7,7.7,0,0,1-5.119,1.5,22.858,22.858,0,0,1-2.723-.124V964.1Zm1.508,9.2a11.006,11.006,0,0,0,1.508.06c3.184.015,4.913-1.6,4.913-4.407.019-2.479-1.523-4.005-4.673-4.005a9.586,9.586,0,0,0-1.748.139Z" transform="translate(-255.07 -963.41)" fill="#fff"/>
        <path id="Path_12875" data-name="Path 12875" d="M288.032,979.237a3.741,3.741,0,0,1-3.972-3.837,3.845,3.845,0,0,1,4.107-3.96,3.771,3.771,0,0,1,3.99,3.822,3.862,3.862,0,0,1-4.107,3.975h-.019Zm.052-1.016a2.654,2.654,0,0,0,2.517-2.91,2.6,2.6,0,0,0-2.483-2.85c-1.781,0-2.535,1.478-2.535,2.9a2.612,2.612,0,0,0,2.483,2.865Z" transform="translate(-273.188 -968.128)" fill="#fff"/>
        <path id="Path_12876" data-name="Path 12876" d="M309.448,971.89l1.114,3.777c.221.833.446,1.616.6,2.389h.053c.188-.754.461-1.556.735-2.374l1.354-3.792h1.268l1.283,3.728c.308.878.548,1.68.735,2.434h.053a20.98,20.98,0,0,1,.634-2.419l1.181-3.743h1.489l-2.67,7.456h-1.369l-1.268-3.559a23.236,23.236,0,0,1-.735-2.464h-.034a20.38,20.38,0,0,1-.754,2.479l-1.335,3.544h-1.369l-2.5-7.456h1.541Z" transform="translate(-288.093 -968.41)" fill="#fff"/>
        <path id="Path_12877" data-name="Path 12877" d="M343.9,973.626c0-.788-.019-1.4-.068-2.018h1.335l.086,1.219h.034a3.139,3.139,0,0,1,2.738-1.388,2.836,2.836,0,0,1,2.929,3.173v4.452h-1.5v-4.3c0-1.2-.5-2.216-1.916-2.216a2.15,2.15,0,0,0-2.021,1.388,1.85,1.85,0,0,0-.1.63v4.5H343.9V973.63Z" transform="translate(-310.542 -968.128)" fill="#fff"/>
        <path id="Path_12878" data-name="Path 12878" d="M369.35,962.61h1.508v10.94H369.35Z" transform="translate(-326.491 -962.61)" fill="#fff"/>
        <path id="Path_12879" data-name="Path 12879" d="M382.4,979.237a3.743,3.743,0,0,1-3.972-3.837,3.846,3.846,0,0,1,4.11-3.96,3.766,3.766,0,0,1,3.987,3.822,3.863,3.863,0,0,1-4.11,3.975Zm.049-1.016a2.655,2.655,0,0,0,2.517-2.91,2.6,2.6,0,0,0-2.483-2.85c-1.781,0-2.535,1.478-2.535,2.9a2.612,2.612,0,0,0,2.483,2.865h.015Z" transform="translate(-332.165 -968.128)" fill="#fff"/>
        <path id="Path_12880" data-name="Path 12880" d="M409.842,977.286a11.17,11.17,0,0,0,.12,1.785h-1.354l-.139-.938h-.049a3.19,3.19,0,0,1-2.535,1.11,2.26,2.26,0,0,1-2.535-2.142c0-1.8,1.781-2.79,4.98-2.771v-.154c0-.615-.188-1.74-1.883-1.725a4.309,4.309,0,0,0-2.175.555l-.341-.908a5.82,5.82,0,0,1,2.738-.649c2.55,0,3.165,1.556,3.165,3.049v2.79Zm-1.47-2.018c-1.643-.03-3.51.233-3.51,1.68a1.259,1.259,0,0,0,1.4,1.294,2.087,2.087,0,0,0,2.036-1.249,1.234,1.234,0,0,0,.068-.431v-1.294Z" transform="translate(-347.74 -968.135)" fill="#fff"/>
        <path id="Path_12881" data-name="Path 12881" d="M433.239,962.61v9.012c0,.664.019,1.418.068,1.928h-1.354l-.068-1.294h-.034a3.1,3.1,0,0,1-2.809,1.463,3.558,3.558,0,0,1-3.563-3.792,3.717,3.717,0,0,1,3.717-4.005,2.851,2.851,0,0,1,2.5,1.125h.034V962.61h1.508Zm-1.508,6.518a2.227,2.227,0,0,0-.067-.585,2.177,2.177,0,0,0-2.175-1.556c-1.556,0-2.483,1.234-2.483,2.865a2.473,2.473,0,0,0,2.449,2.772,2.243,2.243,0,0,0,2.209-1.616,2.088,2.088,0,0,0,.067-.585Z" transform="translate(-361.57 -962.61)" fill="#fff"/>
        <path id="Path_12882" data-name="Path 12882" d="M464.892,979.237a3.743,3.743,0,0,1-3.972-3.837,3.848,3.848,0,0,1,4.11-3.96,3.771,3.771,0,0,1,3.99,3.822,3.862,3.862,0,0,1-4.107,3.975H464.9Zm.053-1.016a2.654,2.654,0,0,0,2.516-2.91,2.6,2.6,0,0,0-2.483-2.85c-1.781,0-2.535,1.478-2.535,2.9a2.612,2.612,0,0,0,2.483,2.865Z" transform="translate(-383.719 -968.128)" fill="#fff"/>
        <path id="Path_12883" data-name="Path 12883" d="M487.467,973.626c0-.788-.019-1.4-.068-2.018h1.335l.086,1.219h.034a3.139,3.139,0,0,1,2.738-1.388,2.836,2.836,0,0,1,2.929,3.173v4.452h-1.508v-4.3c0-1.2-.5-2.216-1.916-2.216a2.15,2.15,0,0,0-2.021,1.388,1.85,1.85,0,0,0-.1.63v4.5h-1.508V973.63Z" transform="translate(-400.268 -968.128)" fill="#fff"/>
        <path id="Path_12884" data-name="Path 12884" d="M522.837,967.111V968.9h2.156v1.031h-2.156v4.02c0,.923.293,1.448,1.129,1.448a3.048,3.048,0,0,0,.874-.094l.067,1.031a4.5,4.5,0,0,1-1.335.184,2.292,2.292,0,0,1-1.628-.57,2.7,2.7,0,0,1-.581-1.958V969.92H520.08v-1.031h1.283v-1.373l1.474-.416Z" transform="translate(-420.692 -965.416)" fill="#fff"/>
        <path id="Path_12885" data-name="Path 12885" d="M537.7,962.61h1.508v4.654h.034a2.567,2.567,0,0,1,1.08-.956,3.174,3.174,0,0,1,1.541-.386c1.11,0,2.892.615,2.892,3.188v4.437h-1.508v-4.283c0-1.219-.495-2.22-1.916-2.22a2.166,2.166,0,0,0-2.021,1.358,1.485,1.485,0,0,0-.1.649v4.5H537.7V962.61Z" transform="translate(-431.703 -962.61)" fill="#fff"/>
        <path id="Path_12886" data-name="Path 12886" d="M562.889,975.544a2.524,2.524,0,0,0,2.824,2.588,6.235,6.235,0,0,0,2.3-.371l.274.956a7.378,7.378,0,0,1-2.775.476c-2.535,0-4.077-1.526-4.077-3.758a3.813,3.813,0,0,1,3.9-4.035,3.264,3.264,0,0,1,3.405,3.514,3.19,3.19,0,0,1-.049.645l-5.806-.015Zm4.4-.971a2,2,0,0,0-2.074-2.205,2.345,2.345,0,0,0-2.31,2.205Z" transform="translate(-446.534 -968.103)" fill="#fff"/>
      </g>
    </g>
  </g>
</svg>
