<svg xmlns="http://www.w3.org/2000/svg" xmlns:xlink="http://www.w3.org/1999/xlink" width="215" height="64" viewBox="0 0 215 64">
  <defs>
    <linearGradient id="linear-gradient" x1="0.915" y1="6.615" x2="-0.384" y2="5.945" gradientUnits="objectBoundingBox">
      <stop offset="0" stop-color="#00a0ff"/>
      <stop offset="0" stop-color="#00a1ff"/>
      <stop offset="0.26" stop-color="#00beff"/>
      <stop offset="0.51" stop-color="#00d2ff"/>
      <stop offset="0.76" stop-color="#00dfff"/>
      <stop offset="1" stop-color="#00e3ff"/>
    </linearGradient>
    <linearGradient id="linear-gradient-2" x1="1.076" y1="17.108" x2="-1.305" y2="17.108" gradientUnits="objectBoundingBox">
      <stop offset="0" stop-color="#ffe000"/>
      <stop offset="0.41" stop-color="#ffbd00"/>
      <stop offset="0.78" stop-color="orange"/>
      <stop offset="1" stop-color="#ff9c00"/>
    </linearGradient>
    <linearGradient id="linear-gradient-3" x1="0.862" y1="10.864" x2="-0.501" y2="9.095" gradientUnits="objectBoundingBox">
      <stop offset="0" stop-color="#ff3a44"/>
      <stop offset="1" stop-color="#c31162"/>
    </linearGradient>
    <linearGradient id="linear-gradient-4" x1="-0.188" y1="13.584" x2="0.421" y2="12.794" gradientUnits="objectBoundingBox">
      <stop offset="0" stop-color="#32a071"/>
      <stop offset="0.07" stop-color="#2da771"/>
      <stop offset="0.48" stop-color="#15cf74"/>
      <stop offset="0.8" stop-color="#06e775"/>
      <stop offset="1" stop-color="#00f076"/>
    </linearGradient>
  </defs>
  <g id="playstore" transform="translate(-15 -15)">
    <rect id="Rectangle_1311" data-name="Rectangle 1311" width="215" height="64" rx="5" transform="translate(15 15)"/>
    <path id="Path_12887" data-name="Path 12887" d="M215.979,11.268a6.654,6.654,0,0,1,6.655,6.655V65.456a6.654,6.654,0,0,1-6.655,6.655H17.922a6.654,6.654,0,0,1-6.655-6.655V17.922a6.654,6.654,0,0,1,6.655-6.655H215.979m0-1.268H17.922A7.946,7.946,0,0,0,10,17.922V65.456a7.946,7.946,0,0,0,7.922,7.922H215.979a7.946,7.946,0,0,0,7.922-7.922V17.922A7.946,7.946,0,0,0,215.979,10Z" transform="translate(5.622 5.622)" fill="#a6a6a6"/>
    <g id="Group_7809" data-name="Group 7809" transform="translate(81.139 26.507)">
      <path id="Path_12888" data-name="Path 12888" d="M60.968,22.21a4.242,4.242,0,0,1-1.188,3.169,4.607,4.607,0,0,1-3.486,1.41,4.719,4.719,0,0,1-3.5-1.426,4.768,4.768,0,0,1-1.442-3.533,4.9,4.9,0,0,1,4.943-4.959,4.818,4.818,0,0,1,1.949.4,4.031,4.031,0,0,1,1.489,1.062l-.84.84a3.224,3.224,0,0,0-2.6-1.125,3.59,3.59,0,0,0-2.6,1.062A3.628,3.628,0,0,0,52.6,21.845a3.742,3.742,0,0,0,6.354,2.741,2.965,2.965,0,0,0,.792-1.933H56.293V21.512H60.9a3.837,3.837,0,0,1,.063.713Z" transform="translate(-51.35 -16.87)" fill="#fff" stroke="#fff" stroke-width="0.2"/>
      <path id="Path_12889" data-name="Path 12889" d="M64.076,18.172H59.75v3.01h3.9v1.141h-3.9v3.01h4.326v1.172H58.53V17h5.546v1.172Z" transform="translate(-47.154 -16.794)" fill="#fff" stroke="#fff" stroke-width="0.2"/>
      <path id="Path_12890" data-name="Path 12890" d="M66.712,26.507h-1.22V18.172H62.83V17h6.528v1.172H66.7v8.334Z" transform="translate(-44.641 -16.794)" fill="#fff" stroke="#fff" stroke-width="0.2"/>
      <path id="Path_12891" data-name="Path 12891" d="M69.94,26.507V17h1.22v9.507Z" transform="translate(-40.485 -16.794)" fill="#fff" stroke="#fff" stroke-width="0.2"/>
      <path id="Path_12892" data-name="Path 12892" d="M75.562,26.507h-1.22V18.172H71.68V17h6.528v1.172H75.546v8.334Z" transform="translate(-39.468 -16.794)" fill="#fff" stroke="#fff" stroke-width="0.2"/>
      <path id="Path_12893" data-name="Path 12893" d="M86.7,25.347a4.935,4.935,0,0,1-6.972,0,4.866,4.866,0,0,1-1.394-3.517,4.84,4.84,0,0,1,1.394-3.517,4.935,4.935,0,0,1,6.972,0,5.113,5.113,0,0,1,.016,7.035Zm-6.068-.792a3.672,3.672,0,0,0,5.165,0,3.74,3.74,0,0,0,1.062-2.725A3.677,3.677,0,0,0,85.793,19.1a3.672,3.672,0,0,0-5.165,0,3.74,3.74,0,0,0-1.062,2.725A3.677,3.677,0,0,0,80.627,24.555Z" transform="translate(-35.582 -16.87)" fill="#fff" stroke="#fff" stroke-width="0.2"/>
      <path id="Path_12894" data-name="Path 12894" d="M85.58,26.507V17h1.489L91.7,24.4h.048L91.7,22.561V17h1.22v9.507H91.648l-4.833-7.748h-.048l.048,1.838v5.926H85.6Z" transform="translate(-31.344 -16.794)" fill="#fff" stroke="#fff" stroke-width="0.2"/>
    </g>
    <path id="Path_12895" data-name="Path 12895" d="M93.973,34.5a6.734,6.734,0,1,0,6.766,6.734A6.646,6.646,0,0,0,93.973,34.5Zm0,10.822a4.1,4.1,0,1,1,3.8-4.088A3.895,3.895,0,0,1,93.973,45.325ZM79.222,34.5a6.734,6.734,0,1,0,6.766,6.734A6.646,6.646,0,0,0,79.222,34.5Zm0,10.822a4.1,4.1,0,1,1,3.8-4.088A3.895,3.895,0,0,1,79.222,45.325ZM61.666,36.563v2.852h6.845a5.972,5.972,0,0,1-1.553,3.6A6.989,6.989,0,0,1,61.682,45.1a7.606,7.606,0,0,1,0-15.211,7.242,7.242,0,0,1,5.149,2.044l2.012-2.012a9.975,9.975,0,0,0-7.178-2.884,10.474,10.474,0,1,0,0,20.946,9.554,9.554,0,0,0,7.3-2.931,9.456,9.456,0,0,0,2.472-6.686,8.643,8.643,0,0,0-.158-1.79H61.666Zm71.791,2.218a6.253,6.253,0,0,0-5.767-4.294,6.38,6.38,0,0,0-6.354,6.734,6.59,6.59,0,0,0,6.686,6.734,6.677,6.677,0,0,0,5.609-2.979l-2.3-1.537a3.833,3.833,0,0,1-3.311,1.87,3.427,3.427,0,0,1-3.264-2.044l9.016-3.723-.3-.761Zm-9.19,2.25a3.693,3.693,0,0,1,3.517-3.929,2.617,2.617,0,0,1,2.5,1.426l-6.021,2.5Zm-7.32,6.528h2.963V27.753h-2.963ZM112.1,35.992H112a4.658,4.658,0,0,0-3.549-1.505,6.748,6.748,0,0,0,0,13.484A4.566,4.566,0,0,0,112,46.434h.1V47.4c0,2.583-1.378,3.961-3.6,3.961a3.73,3.73,0,0,1-3.391-2.393l-2.583,1.077a6.422,6.422,0,0,0,5.973,3.977c3.47,0,6.4-2.044,6.4-7.019V34.9h-2.8v1.093Zm-3.391,9.317a3.868,3.868,0,0,1-3.755-4.056,3.911,3.911,0,0,1,3.755-4.1c2.044,0,3.6,1.743,3.6,4.1A3.757,3.757,0,0,1,108.708,45.309Zm38.629-17.556h-7.082V47.559h2.963v-7.51h4.135a6.157,6.157,0,1,0,0-12.3Zm.079,9.554h-4.2v-6.8h4.2a3.392,3.392,0,1,1,0,6.781Zm18.269-2.852a5.574,5.574,0,0,0-5.276,3.026l2.63,1.093a2.8,2.8,0,0,1,2.694-1.458c1.521,0,3.09.919,3.106,2.551v.206a6.617,6.617,0,0,0-3.09-.761c-2.836,0-5.7,1.553-5.7,4.452,0,2.646,2.313,4.357,4.912,4.357a4.166,4.166,0,0,0,3.771-1.933h.1v1.537h2.852v-7.59c0-3.517-2.63-5.482-6.021-5.482Zm-.364,10.853c-.967,0-2.313-.491-2.313-1.68,0-1.521,1.68-2.107,3.137-2.107a5.218,5.218,0,0,1,2.694.665,3.576,3.576,0,0,1-3.517,3.137Zm16.763-10.426-3.391,8.588h-.1l-3.517-8.588H171.9l5.276,12.01-3.01,6.671h3.09l8.128-18.681H182.1ZM155.449,47.559h2.963V27.753h-2.963Z" transform="translate(29.614 15.581)" fill="#fff"/>
    <g id="Group_7811" data-name="Group 7811" transform="translate(31.419 26.937)">
      <path id="Path_12896" data-name="Path 12896" d="M20.709,17.587A3.188,3.188,0,0,0,19.98,19.8V54.853a3.133,3.133,0,0,0,.729,2.218l.111.111L40.451,37.551v-.459L20.82,17.46l-.111.111Z" transform="translate(-19.964 -16.955)" fill="url(#linear-gradient)"/>
      <path id="Path_12897" data-name="Path 12897" d="M39.444,39.277,32.9,32.733v-.459l6.544-6.544.143.079,7.748,4.4c2.218,1.252,2.218,3.312,0,4.579l-7.748,4.4-.143.079Z" transform="translate(-12.413 -12.121)" fill="url(#linear-gradient-2)"/>
      <path id="Path_12898" data-name="Path 12898" d="M46.869,36.686,40.182,30,20.44,49.742c.729.776,1.933.871,3.3.1L46.884,36.686" transform="translate(-19.695 -9.626)" fill="url(#linear-gradient-3)"/>
      <path id="Path_12899" data-name="Path 12899" d="M46.874,30.829,23.726,17.678c-1.363-.776-2.567-.681-3.3.1L40.172,37.515l6.686-6.686Z" transform="translate(-19.701 -17.141)" fill="url(#linear-gradient-4)"/>
      <g id="Group_7810" data-name="Group 7810" transform="translate(0.016 26.918)">
        <path id="Path_12900" data-name="Path 12900" d="M46.726,34.13,23.72,47.2c-1.283.729-2.44.681-3.169.016h0l-.111.111h0l.111.111h0c.745.665,1.885.713,3.169-.016L46.869,34.273Z" transform="translate(-19.711 -34.13)" opacity="0.2"/>
        <path id="Path_12901" data-name="Path 12901" d="M20.709,43.138a3.188,3.188,0,0,1-.729-2.218v.238a3.133,3.133,0,0,0,.729,2.218l.111-.111-.111-.111Z" transform="translate(-19.98 -30.162)" opacity="0.12"/>
      </g>
      <path id="Path_12902" data-name="Path 12902" d="M44.926,32.06,37.02,36.544l.143.143,7.748-4.4A2.785,2.785,0,0,0,46.574,30h0a2.949,2.949,0,0,1-1.664,2.06Z" transform="translate(-10.005 -9.626)" opacity="0.12"/>
      <path id="Path_12903" data-name="Path 12903" d="M23.994,17.9l30.9,17.556a2.961,2.961,0,0,1,1.664,2.06h0a2.765,2.765,0,0,0-1.664-2.282l-30.9-17.556C21.776,16.423,19.97,17.469,19.97,20v.238c0-2.535,1.806-3.581,4.025-2.329Z" transform="translate(-19.97 -17.138)" fill="#fff" opacity="0.25"/>
    </g>
  </g>
</svg>
